<?xml version="1.0" standalone="no"?>
<!DOCTYPE svg PUBLIC "-//W3C//DTD SVG 20010904//EN"
 "http://www.w3.org/TR/2001/REC-SVG-20010904/DTD/svg10.dtd">
<svg version="1.0" xmlns="http://www.w3.org/2000/svg"
 width="1858.000000pt" height="1733.000000pt" viewBox="0 0 1858.000000 1733.000000"
 preserveAspectRatio="xMidYMid meet">

<g transform="translate(0.000000,1733.000000) scale(0.100000,-0.100000)"
fill="#000000" stroke="none">
<path d="M9271 17206 c-3 -202 -511 -2777 -837 -4251 -851 -3841 -1671 -6275
-2687 -7980 -201 -337 -486 -747 -726 -1045 -365 -452 -845 -927 -1366 -1351
-401 -327 -864 -658 -1830 -1309 -762 -513 -1298 -886 -1699 -1182 l-120 -88
4647 0 c4124 0 4647 2 4647 15 0 13 522 15 4637 15 l4637 0 -120 88 c-399 294
-848 606 -1664 1157 -676 456 -941 638 -1205 829 -1156 833 -1859 1535 -2509
2505 -1235 1841 -2203 4754 -3226 9706 -244 1180 -550 2784 -551 2889 0 41 -3
55 -9 41 -7 -18 -8 -16 -12 10 -3 17 -6 -6 -7 -49z"/>
</g>
</svg>
